HIERARCHY
ROOT Hips
{
	OFFSET 0.000000 0.000000 0.000000
	CHANNELS 6 Xposition Yposition Zposition Zrotation Yrotation Xrotation 
	JOINT LowerBack
	{
		OFFSET 0.000000 0.000000 0.000000
		CHANNELS 3 Zrotation Yrotation Xrotation
		JOINT Spine
		{
			OFFSET 0.028270 2.035590 -0.193380
			CHANNELS 3 Zrotation Yrotation Xrotation
			JOINT Spine1
			{
				OFFSET 0.056720 2.048850 -0.042750
				CHANNELS 3 Zrotation Yrotation Xrotation
				JOINT Neck
				{
					OFFSET 0.000000 0.000000 0.000000
					CHANNELS 3 Zrotation Yrotation Xrotation
					JOINT Neck1
					{
						OFFSET -0.054170 1.746240 0.172020
						CHANNELS 3 Zrotation Yrotation Xrotation
						JOINT Head
						{
							OFFSET 0.104070 1.761360 -0.123970
							CHANNELS 3 Zrotation Yrotation Xrotation
							End Site
							{
								OFFSET 0.000000 0.000000 0.000000
							}
						}
					}
				}
				JOINT LeftShoulder
				{
					OFFSET 0.000000 0.000000 0.000000
					CHANNELS 3 Zrotation Yrotation Xrotation
					JOINT LeftArm
					{
						OFFSET 3.362410 1.200890 -0.311210
						CHANNELS 3 Zrotation Yrotation Xrotation
						JOINT LeftForeArm
						{
							OFFSET 4.983000 -0.000000 -0.000000
							CHANNELS 3 Zrotation Yrotation Xrotation
							JOINT LeftHand
							{
								OFFSET 3.483560 -0.000000 -0.000000
								CHANNELS 3 Zrotation Yrotation Xrotation
								JOINT LeftFingerBase
								{
									OFFSET 0.000000 0.000000 0.000000
									CHANNELS 3 Zrotation Yrotation Xrotation
									JOINT LeftHandIndex1
									{
										OFFSET 0.715260 -0.000000 -0.000000
										CHANNELS 3 Zrotation Yrotation Xrotation
										End Site
										{
											OFFSET 0.000000 0.000000 0.000000
										}
									}
								}
								JOINT LThumb
								{
									OFFSET 0.000000 0.000000 0.000000
									CHANNELS 3 Zrotation Yrotation Xrotation
									End Site
									{
										OFFSET 0.000000 0.000000 0.000000
									}
								}
							}
						}
					}
				}
				JOINT RightShoulder
				{
					OFFSET 0.000000 0.000000 0.000000
					CHANNELS 3 Zrotation Yrotation Xrotation
					JOINT RightArm
					{
						OFFSET -3.136600 1.374050 -0.404650
						CHANNELS 3 Zrotation Yrotation Xrotation
						JOINT RightForeArm
						{
							OFFSET -5.241900 -0.000000 -0.000000
							CHANNELS 3 Zrotation Yrotation Xrotation
							JOINT RightHand
							{
								OFFSET -3.444170 -0.000000 -0.000000
								CHANNELS 3 Zrotation Yrotation Xrotation
								JOINT RightFingerBase
								{
									OFFSET 0.000000 0.000000 0.000000
									CHANNELS 3 Zrotation Yrotation Xrotation
									JOINT RightHandIndex1
									{
										OFFSET -0.622530 -0.000000 -0.000000
										CHANNELS 3 Zrotation Yrotation Xrotation
										End Site
										{
											OFFSET 0.000000 0.000000 0.000000
										}
									}
								}
								JOINT RThumb
								{
									OFFSET 0.000000 0.000000 0.000000
									CHANNELS 3 Zrotation Yrotation Xrotation
									End Site
									{
										OFFSET 0.000000 0.000000 0.000000
									}
								}
							}
						}
					}
				}
			}
		}
	}
}
}
MOTION
Frames: 14
Frame Time: 0.008333
-19.695587 16.180976 -0.519070 11.683095 83.756051 27.354746 -9.689265 1.409801 -5.074435 -2.904691 1.985055 -4.400821 -6.253453 1.827695 -0.951952 9.003341 -2.141328 -8.738336 -3.115263 -0.227304 -0.410653 0.000000 0.000000 0.000000 -7.080908 15.527611 3.389454 -49.523898 20.186863 27.676180 -4.679793 -22.237146 -0.033693 -6.128378 9.035517 -0.479011 -0.144691 -0.098179 -0.000000 0.000000 0.000000 0.000000 0.000000 0.000000 0.000000 11.894038 6.544102 1.098936 59.513925 33.749606 31.235895 0.835614 73.092934 -0.009652 -2.867202 7.668577 -0.208276 0.079735 -0.474521 -0.000000 0.000000 0.000000 0.000000 0.000000 0.000000 0.000000 
-19.516021 16.182965 -0.524232 14.860233 84.025375 30.320784 -9.904495 1.280435 -4.816449 -2.959521 1.877457 -4.386114 -6.385722 1.718135 -1.112868 9.164124 -1.955070 -8.639220 -3.263710 -0.239599 -0.396335 0.000000 0.000000 0.000000 -7.346007 14.801601 3.456179 -50.113801 18.152105 26.276268 -4.755110 -20.242556 -0.030058 -5.239597 8.812792 -0.396853 -0.145550 -0.080403 -0.000000 0.000000 0.000000 0.000000 0.000000 0.000000 0.000000 12.565605 6.683286 1.071695 60.807427 31.607735 30.900005 0.897656 71.370676 -0.010054 -2.993157 7.739675 -0.218874 0.079850 -0.464639 -0.000000 0.000000 0.000000 0.000000 0.000000 0.000000 0.000000 
-19.339848 16.185853 -0.529361 18.308298 84.305732 33.557262 -10.080626 1.147370 -4.539497 -3.004392 1.762319 -4.360937 -6.506937 1.600819 -1.253486 9.301365 -1.791027 -8.535017 -3.406009 -0.251249 -0.380819 0.000000 0.000000 0.000000 -7.558808 14.075881 3.513124 -50.787314 15.898334 24.767660 -4.811693 -18.101631 -0.025923 -4.122934 8.490161 -0.297992 -0.143382 -0.061495 -0.000000 0.000000 0.000000 0.000000 0.000000 0.000000 0.000000 13.205713 6.751425 1.034467 62.142153 29.499807 30.384226 0.961911 69.355280 -0.010462 -3.110122 7.866849 -0.230396 0.078248 -0.453274 -0.000000 0.000000 0.000000 0.000000 0.000000 0.000000 0.000000 
-19.166273 16.190272 -0.534731 21.889813 84.578751 36.927972 -10.205279 1.019697 -4.257257 -3.038053 1.647365 -4.332384 -6.621313 1.482485 -1.389157 9.416706 -1.652259 -8.409662 -3.540704 -0.262417 -0.358713 0.000000 0.000000 0.000000 -7.747799 13.262325 3.554032 -51.516686 13.587860 23.015274 -4.845087 -15.926409 -0.021581 -2.763699 8.057810 -0.186232 -0.137633 -0.042444 -0.000000 0.000000 0.000000 0.000000 0.000000 0.000000 0.000000 13.812833 6.744488 1.001634 63.521491 27.430822 29.666528 1.028478 67.024643 -0.010909 -3.236574 8.052483 -0.244535 0.075649 -0.440349 -0.000000 0.000000 0.000000 0.000000 0.000000 0.000000 0.000000 
-18.994731 16.196889 -0.540472 25.520368 84.830398 40.351704 -10.277815 0.900714 -3.981283 -3.060975 1.535912 -4.301935 -6.729781 1.366209 -1.515208 9.514085 -1.542573 -8.267239 -3.665080 -0.272835 -0.330735 0.000000 0.000000 0.000000 -7.917859 12.374411 3.576636 -52.278507 11.235851 21.037821 -4.848032 -13.782987 -0.017330 -1.168108 7.490078 -0.068476 -0.128050 -0.024070 -0.000000 0.000000 0.000000 0.000000 0.000000 0.000000 0.000000 14.380199 6.658949 0.975945 64.951753 25.420837 28.718064 1.096081 64.367109 -0.011468 -3.395521 8.295694 -0.263089 0.072641 -0.425749 -0.000000 0.000000 0.000000 0.000000 0.000000 0.000000 0.000000 
-18.824818 16.206279 -0.546675 29.142515 85.048798 43.777828 -10.304730 0.788016 -3.719184 -3.074290 1.426495 -4.263511 -6.830499 1.251393 -1.600817 9.599861 -1.466210 -8.140197 -3.775189 -0.281707 -0.306161 0.000000 0.000000 0.000000 -8.066215 11.578106 3.576743 -53.038329 8.658706 19.099407 -4.812501 -11.684962 -0.013539 0.618940 6.768427 0.043374 -0.115063 -0.006860 -0.000000 0.000000 0.000000 0.000000 0.000000 0.000000 0.000000 14.896572 6.493195 0.944702 66.440760 23.509275 27.503486 1.161471 61.386692 -0.012217 -3.610853 8.591899 -0.288456 0.069623 -0.409261 -0.000000 0.000000 0.000000 0.000000 0.000000 0.000000 0.000000 
-18.656202 16.219122 -0.553457 32.678170 85.227027 47.131201 -10.288027 0.683325 -3.485560 -3.079301 1.320896 -4.228373 -6.929244 1.138519 -1.677586 9.676691 -1.410635 -7.997645 -3.873006 -0.289722 -0.275508 0.000000 0.000000 0.000000 -8.212902 10.702616 3.559595 -53.781945 6.143233 17.015907 -4.742430 -9.814448 -0.010525 2.558308 5.897664 0.136715 -0.099233 0.008028 -0.000000 0.000000 0.000000 0.000000 0.000000 0.000000 0.000000 15.370140 6.263776 0.930558 67.970293 21.677394 25.984424 1.224093 58.097108 -0.013252 -3.922932 8.931069 -0.324131 0.067429 -0.391122 -0.000000 0.000000 0.000000 0.000000 0.000000 0.000000 0.000000 
-18.488001 16.235895 -0.560879 36.089453 85.360026 50.380745 -10.237851 0.580099 -3.283910 -3.077304 1.213786 -4.190649 -7.024418 1.023280 -1.719262 9.751282 -1.372266 -7.868780 -3.956547 -0.296304 -0.247380 0.000000 0.000000 0.000000 -8.353979 9.900723 3.525066 -54.487073 3.535835 15.080935 -4.639688 -8.201986 -0.008548 4.560175 4.902424 0.198042 -0.081989 0.020541 0.000000 0.000000 0.000000 0.000000 0.000000 0.000000 0.000000 15.796088 5.980226 0.922684 69.529118 19.957496 24.123807 1.280232 54.530497 -0.014609 -4.362694 9.301356 -0.373715 0.066309 -0.371288 -0.000000 0.000000 0.000000 0.000000 0.000000 0.000000 0.000000 
-18.320189 16.256938 -0.569005 39.316218 85.447260 53.469380 -10.159510 0.473617 -3.117687 -3.068748 1.101033 -4.150426 -7.116642 0.901851 -1.723069 9.827457 -1.342304 -7.758871 -4.025793 -0.301420 -0.223318 0.000000 0.000000 0.000000 -8.493565 9.200457 3.476755 -55.148806 0.850369 13.408983 -4.514008 -6.916432 -0.007707 6.535033 3.832301 0.219362 -0.064923 0.030753 0.000000 0.000000 0.000000 0.000000 0.000000 0.000000 0.000000 16.174560 5.657920 0.922908 71.090994 18.360353 21.893722 1.327515 50.726959 -0.016302 -4.967142 9.690597 -0.441409 0.066563 -0.349929 -0.000000 0.000000 0.000000 0.000000 0.000000 0.000000 0.000000 
-18.152566 16.282598 -0.577657 42.357192 85.487541 56.392766 -10.064913 0.361538 -2.991961 -3.056231 0.981053 -4.116857 -7.208948 0.771716 -1.720565 9.911921 -1.302806 -7.635585 -4.085339 -0.305959 -0.194027 0.000000 0.000000 0.000000 -8.614343 8.428767 3.427756 -55.788479 -1.646095 11.801424 -4.376821 -6.087071 -0.007826 8.408222 2.719568 0.198271 -0.049060 0.038599 0.000000 0.000000 0.000000 0.000000 0.000000 0.000000 0.000000 16.525726 5.321973 0.952783 72.604563 16.858976 19.268190 1.365141 46.745843 -0.018275 -5.760875 10.073061 -0.530007 0.068195 -0.327487 0.000000 0.000000 0.000000 0.000000 0.000000 0.000000 0.000000 
-17.984517 16.312858 -0.587147 45.118547 85.488711 59.056425 -9.951177 0.238219 -2.899189 -3.037646 0.848231 -4.082421 -7.298277 0.628662 -1.688108 10.005410 -1.250346 -7.525860 -4.132435 -0.309328 -0.167522 0.000000 0.000000 0.000000 -8.717981 7.742188 3.377304 -56.404605 -4.132634 10.515285 -4.238425 -5.661681 -0.008796 10.086553 1.634343 0.140772 -0.036169 0.045154 0.000000 0.000000 0.000000 0.000000 0.000000 0.000000 0.000000 16.835408 4.983000 0.999346 74.038122 15.480359 16.258754 1.390856 42.637386 -0.020433 -6.768110 10.443371 -0.643213 0.070994 -0.304148 0.000000 0.000000 0.000000 0.000000 0.000000 0.000000 0.000000 
-17.815972 16.347834 -0.597339 47.601488 85.453162 61.453076 -9.826864 0.102242 -2.835936 -3.014828 0.701608 -4.053115 -7.386243 0.471227 -1.651828 10.113438 -1.159259 -7.402612 -4.171431 -0.312272 -0.136292 0.000000 0.000000 0.000000 -8.782280 7.022969 3.336565 -57.013402 -6.433785 9.402586 -4.106328 -5.697206 -0.010317 11.510165 0.611875 0.056769 -0.026886 0.050949 0.000000 0.000000 0.000000 0.000000 0.000000 0.000000 0.000000 17.119657 4.675693 1.076252 75.332686 14.178416 12.860208 1.404035 38.488176 -0.022614 -7.969039 10.765301 -0.778228 0.074193 -0.280435 0.000000 0.000000 0.000000 0.000000 0.000000 0.000000 0.000000 
-17.646854 16.387252 -0.608558 49.742841 85.392246 63.513256 -9.686303 -0.049479 -2.789887 -2.985727 0.537761 -4.021837 -7.471059 0.297479 -1.593717 10.238197 -1.055566 -7.289669 -4.199486 -0.314292 -0.107163 0.000000 0.000000 0.000000 -8.814159 6.375011 3.302058 -57.608397 -8.676778 8.605330 -3.987215 -6.126551 -0.012235 12.628843 -0.286840 -0.038032 -0.022219 0.057074 0.000000 0.000000 0.000000 0.000000 0.000000 0.000000 0.000000 17.372986 4.380935 1.174743 76.443620 12.990924 9.192550 1.407528 34.332940 -0.024662 -9.367790 11.030414 -0.934847 0.077682 -0.256689 0.000000 0.000000 0.000000 0.000000 0.000000 0.000000 0.000000 
-17.476833 16.430929 -0.621021 51.512900 85.316642 65.196968 -9.524712 -0.215801 -2.752591 -2.949373 0.357348 -3.991373 -7.551913 0.108085 -1.531708 10.377907 -0.922526 -7.170431 -4.218200 -0.315769 -0.075394 0.000000 0.000000 0.000000 -8.800997 5.736998 3.279636 -58.193813 -10.772535 8.053037 -3.882528 -6.957492 -0.014342 13.423567 -1.032718 -0.129228 -0.022195 0.064132 0.000000 0.000000 0.000000 0.000000 0.000000 0.000000 0.000000 17.594268 4.125543 1.299684 77.324592 11.865054 5.333702 1.404008 30.246146 -0.026425 -10.908928 11.203170 -1.103269 0.080723 -0.233529 0.000000 0.000000 0.000000 0.000000 0.000000 0.000000 0.000000 
